<?xml version="1.0" encoding="utf-8"?>
<!-- Generator: Adobe Illustrator 18.1.0, SVG Export Plug-In . SVG Version: 6.00 Build 0)  -->
<!DOCTYPE svg PUBLIC "-//W3C//DTD SVG 1.1//EN" "http://www.w3.org/Graphics/SVG/1.1/DTD/svg11.dtd">
<svg version="1.1" id="Layer_1" xmlns="http://www.w3.org/2000/svg" xmlns:xlink="http://www.w3.org/1999/xlink" x="0px" y="0px"
	 viewBox="518 270 100 100" enable-background="new 518 270 100 100" xml:space="preserve">
<path fill="#FFFFFF" d="M581.8,296.2h-2.5c-0.7,0-1.2-0.6-1.2-1.2s0.6-1.2,1.2-1.2h2.5c0.7,0,1.2,0.6,1.2,1.2
	S582.4,296.2,581.8,296.2z M576.8,287.9c-0.5,0.5-1.2,0.5-1.7,0s-0.5-1.2,0-1.7l1.7-1.7c0.5-0.5,1.2-0.5,1.7,0
	c0.5,0.5,0.5,1.2,0,1.7L576.8,287.9z M568,302.5c-4.1,0-7.5-3.4-7.5-7.5s3.4-7.5,7.5-7.5s7.5,3.4,7.5,7.5S572.1,302.5,568,302.5z
	 M568,290c-2.8,0-5,2.3-5,5s2.3,5,5,5s5-2.3,5-5S570.8,290,568,290z M568,285c-0.7,0-1.2-0.6-1.2-1.2v-2.5c0-0.7,0.6-1.2,1.2-1.2
	s1.2,0.6,1.2,1.2v2.5C569.2,284.4,568.7,285,568,285z M559.2,287.9l-1.7-1.7c-0.5-0.5-0.5-1.2,0-1.7c0.5-0.5,1.2-0.5,1.7,0l1.7,1.7
	c0.5,0.5,0.5,1.2,0,1.7S559.6,288.4,559.2,287.9z M558,295c0,0.7-0.6,1.2-1.2,1.2h-2.5c-0.7,0-1.2-0.6-1.2-1.2s0.6-1.2,1.2-1.2h2.5
	C557.4,293.8,558,294.3,558,295z M559.2,302.1c0.5-0.5,1.2-0.5,1.7,0s0.5,1.2,0,1.7l-1.7,1.7c-0.5,0.5-1.2,0.5-1.7,0
	c-0.5-0.5-0.5-1.2,0-1.7L559.2,302.1z M568,305c0.7,0,1.2,0.6,1.2,1.2v2.5c0,0.7-0.6,1.2-1.2,1.2s-1.2-0.6-1.2-1.2v-2.5
	C566.8,305.6,567.3,305,568,305z M576.8,302.1l1.7,1.7c0.5,0.5,0.5,1.2,0,1.7c-0.5,0.5-1.2,0.5-1.7,0l-1.7-1.7
	c-0.5-0.5-0.5-1.2,0-1.7S576.4,301.6,576.8,302.1z"/>
</svg>
