<?xml version="1.0" encoding="utf-8"?>
<!-- Generator: Adobe Illustrator 18.1.0, SVG Export Plug-In . SVG Version: 6.00 Build 0)  -->
<!DOCTYPE svg PUBLIC "-//W3C//DTD SVG 1.1//EN" "http://www.w3.org/Graphics/SVG/1.1/DTD/svg11.dtd">
<svg version="1.1" id="Layer_1" xmlns="http://www.w3.org/2000/svg" xmlns:xlink="http://www.w3.org/1999/xlink" x="0px" y="0px"
	 viewBox="974 718 100 100" enable-background="new 974 718 100 100" xml:space="preserve">
<path fill="#FFFFFF" d="M1019.8,748.9c-6,0-10.9-4.9-10.9-10.9s4.9-10.9,10.9-10.9c4.1,0,7.6,2.3,9.5,5.6c0.5-0.1,0.9-0.1,1.4-0.1
	c4.5,0,8.2,3.7,8.2,8.2s-3.7,8.2-8.2,8.2C1028.8,748.9,1022,748.9,1019.8,748.9z M1030.7,746.2c3,0,5.5-2.5,5.5-5.5
	c0-3-2.5-5.5-5.5-5.5c-1.1,0-2.1,0.3-2.9,0.9c-0.8-3.6-4.1-6.3-8-6.3c-4.5,0-8.2,3.7-8.2,8.2s3.7,8.2,8.2,8.2
	C1022.3,746.2,1028.7,746.2,1030.7,746.2z"/>
</svg>
