<?xml version="1.0" encoding="utf-8"?>
<!-- Generator: Adobe Illustrator 18.1.0, SVG Export Plug-In . SVG Version: 6.00 Build 0)  -->
<!DOCTYPE svg PUBLIC "-//W3C//DTD SVG 1.1//EN" "http://www.w3.org/Graphics/SVG/1.1/DTD/svg11.dtd">
<svg version="1.1" id="Layer_1" xmlns="http://www.w3.org/2000/svg" xmlns:xlink="http://www.w3.org/1999/xlink" x="0px" y="0px"
	 viewBox="518 270 100 100" enable-background="new 518 270 100 100" xml:space="preserve">
<path fill="#FFFFFF" d="M553.8,299.8c-0.2-0.4-0.3-0.9-0.4-1.4H583c0,0.5-0.1,0.9-0.1,1.4H553.8z M558.6,286.2
	c1.6-0.9,3.3-1.4,5.2-1.4s3.7,0.5,5.2,1.4H558.6z M553.1,294.3c0.1-0.5,0.1-0.9,0.3-1.4h27.5c0.4,0.4,0.7,0.9,1,1.4H553.1z
	 M553.8,291.6c0.2-0.5,0.4-1,0.7-1.4h18.8c0,0.1,0.1,0.1,0.1,0.1c0.5-0.1,0.9-0.1,1.4-0.1c1.7,0,3.2,0.5,4.5,1.4H553.8z
	 M555.4,288.9c0.4-0.5,0.8-1,1.3-1.4H571c0.5,0.4,0.9,0.9,1.3,1.4H555.4z M582.8,297h-29.7c-0.1-0.5-0.1-0.9-0.1-1.4h29.5
	C582.6,296.2,582.7,296.6,582.8,297z M582.5,301.1c-0.1,0.5-0.4,1-0.6,1.4h-26.5c-0.3-0.4-0.7-0.9-1-1.4H582.5z M556.7,303.8h24.1
	c-0.5,0.5-1,1-1.6,1.4h-20.7C557.9,304.9,557.3,304.4,556.7,303.8z"/>
</svg>
