<?xml version="1.0" encoding="utf-8"?>
<!-- Generator: Adobe Illustrator 18.1.0, SVG Export Plug-In . SVG Version: 6.00 Build 0)  -->
<!DOCTYPE svg PUBLIC "-//W3C//DTD SVG 1.1//EN" "http://www.w3.org/Graphics/SVG/1.1/DTD/svg11.dtd">
<svg version="1.1" id="Layer_1" xmlns="http://www.w3.org/2000/svg" xmlns:xlink="http://www.w3.org/1999/xlink" x="0px" y="0px"
	 viewBox="-973 719 100 100" enable-background="new -973 719 100 100" xml:space="preserve">
<path fill="#FFFFFF" d="M-907.8,748.6c-0.7,0-1.3-0.6-1.3-1.3c0-0.7,0.6-1.3,1.3-1.3s1.3,0.6,1.3,1.3
	C-906.5,748-907.1,748.6-907.8,748.6z M-913.5,744.3v-2.8c1.5-0.9,2.6-2.5,2.6-4.4c0-2.8-2.3-5.1-5.1-5.1c-1,0-2,0.3-2.8,0.8
	c-0.8-3.4-3.8-5.9-7.4-5.9c-4.2,0-7.7,3.4-7.7,7.7c0,2.3,1,4.3,2.6,5.7v3.1c-3-1.8-5.1-5.1-5.1-8.8c0-5.6,4.6-10.2,10.2-10.2
	c3.8,0,7.2,2.1,8.9,5.2c0.4-0.1,0.9-0.1,1.3-0.1c4.2,0,7.7,3.4,7.7,7.7C-908.4,740.4-910.5,743.2-913.5,744.3z M-934.6,749.2
	c0.7,0,1.3,0.6,1.3,1.3c0,0.7-0.6,1.3-1.3,1.3s-1.3-0.6-1.3-1.3C-935.9,749.8-935.3,749.2-934.6,749.2z M-928.2,738.4
	c0-0.7-0.1-1.3,0.6-1.3s0.6,0.6,0.6,1.3v15.3h-1.3l0,0l0,0c0-1.4-1.1-2.6-2.6-2.6v-1.3c1,0,1.9,0.4,2.6,1V738.4z M-922.5,747.3
	c-0.7,0-0.6-0.6-0.6-1.3v-5.1c0-0.7-0.1-1.3,0.6-1.3s0.6,0.6,0.6,1.3v5.1C-921.8,746.7-921.8,747.3-922.5,747.3z M-922.5,749.9
	c0.7,0,1.3,0.6,1.3,1.3c0,0.7-0.6,1.3-1.3,1.3s-1.3-0.6-1.3-1.3C-923.7,750.4-923.2,749.9-922.5,749.9z M-917.4,737.1
	c0.7,0,0.6,0.6,0.6,1.3v11.5c1.2-1.6,3-2.6,5.1-2.6v1.3c-2.8,0-5.1,2.3-5.1,5.1h-1.3c0-0.2,0-0.3,0-0.5c0-0.2,0-0.5,0-0.8v-14
	C-918,737.7-918.1,737.1-917.4,737.1z"/>
</svg>
