<?xml version="1.0" encoding="utf-8"?>
<!-- Generator: Adobe Illustrator 18.1.0, SVG Export Plug-In . SVG Version: 6.00 Build 0)  -->
<!DOCTYPE svg PUBLIC "-//W3C//DTD SVG 1.1//EN" "http://www.w3.org/Graphics/SVG/1.1/DTD/svg11.dtd">
<svg version="1.1" id="Layer_1" xmlns="http://www.w3.org/2000/svg" xmlns:xlink="http://www.w3.org/1999/xlink" x="0px" y="0px"
	 viewBox="974 718 100 100" enable-background="new 974 718 100 100" xml:space="preserve">
<path fill="#FFFFFF" d="M1039.6,739.2h-2.5c-0.7,0-1.2-0.6-1.2-1.2s0.6-1.2,1.2-1.2h2.5c0.7,0,1.2,0.6,1.2,1.2
	S1040.3,739.2,1039.6,739.2z M1034.8,730.9c-0.5,0.5-1.2,0.5-1.7,0s-0.5-1.2,0-1.7l1.7-1.7c0.5-0.5,1.2-0.5,1.7,0
	c0.5,0.5,0.5,1.2,0,1.7L1034.8,730.9z M1032.9,740.7L1032.9,740.7c1.1,1.3,1.7,3,1.7,4.8c0,4.1-3.4,7.5-7.5,7.5c-1.7,0-8,0-10,0
	c-5.5,0-10-4.5-10-10c0-5.5,4.5-10,10-10c1,0,1.9,0.1,2.8,0.4c1.4-1.7,3.5-2.9,5.9-2.9c4.1,0,7.5,3.4,7.5,7.5
	C1033.4,739,1033.2,739.9,1032.9,740.7z M1009.6,743c0,4.1,3.4,7.5,7.5,7.5c2.3,0,8.1,0,10,0c2.8,0,5-2.3,5-5s-2.3-5-5-5
	c-1,0-1.9,0.3-2.7,0.8c-0.8-3.3-3.8-5.8-7.3-5.8C1013,735.5,1009.6,738.9,1009.6,743z M1025.9,733c-1.4,0-2.6,0.6-3.6,1.4
	c1.4,0.9,2.7,2.2,3.5,3.7c0.4-0.1,0.8-0.1,1.2-0.1c1.3,0,2.6,0.4,3.7,0.9l0,0c0.1-0.3,0.1-0.6,0.1-0.9
	C1030.9,735.2,1028.7,733,1025.9,733z M1025.9,728c-0.7,0-1.2-0.6-1.2-1.2v-2.5c0-0.7,0.6-1.2,1.2-1.2s1.2,0.6,1.2,1.2v2.5
	C1027.1,727.4,1026.6,728,1025.9,728z M1017.1,730.9l-1.7-1.7c-0.5-0.5-0.5-1.2,0-1.7c0.5-0.5,1.2-0.5,1.7,0l1.7,1.7
	c0.5,0.5,0.5,1.2,0,1.7C1018.4,731.4,1017.6,731.4,1017.1,730.9z"/>
</svg>
