<?xml version="1.0" encoding="utf-8"?>
<!-- Generator: Adobe Illustrator 18.1.0, SVG Export Plug-In . SVG Version: 6.00 Build 0)  -->
<!DOCTYPE svg PUBLIC "-//W3C//DTD SVG 1.1//EN" "http://www.w3.org/Graphics/SVG/1.1/DTD/svg11.dtd">
<svg version="1.1" id="Layer_1" xmlns="http://www.w3.org/2000/svg" xmlns:xlink="http://www.w3.org/1999/xlink" x="0px" y="0px"
	 viewBox="974 718 100 100" enable-background="new 974 718 100 100" xml:space="preserve">
<path fill="#FFFFFF" d="M1036.9,738.4L1036.9,738.4c0.9,1.3,1.5,2.9,1.5,4.6c0,4.4-3.6,8-8,8c-1.9,0-8.5,0-10.7,0
	c-5.9,0-10.7-4.8-10.7-10.7c0-5.9,4.8-10.7,10.7-10.7c1.3,0,2.6,0.3,3.8,0.7l0,0c1.1-3.1,4.1-5.3,7.5-5.3c0.5,0,1,0.1,1.5,0.1
	c-0.1,0.4-0.1,0.8-0.1,1.2c0,2.9,2.4,5.3,5.3,5.3c0.4,0,0.8-0.1,1.2-0.1c0.1,0.5,0.1,1,0.1,1.5
	C1038.9,735.1,1038.1,736.9,1036.9,738.4z M1011.6,740.3c0,4.4,3.6,8,8,8c2.4,0,8.7,0,10.7,0c2.9,0,5.3-2.4,5.3-5.3
	s-2.4-5.3-5.3-5.3c-1.1,0-2.1,0.3-2.9,0.9c-0.8-3.5-4-6.2-7.8-6.2C1015.2,732.3,1011.6,735.9,1011.6,740.3z M1024.7,730.9
	L1024.7,730.9L1024.7,730.9z M1029.8,727.7c-1.9,0.5-3.5,1.9-3.9,3.9l0,0c1.3,0.9,2.3,2.1,3.1,3.5c0.5-0.1,0.9-0.1,1.3-0.1
	c1.7,0,3.3,0.5,4.7,1.5l0,0c0.6-0.7,1-1.5,1.2-2.3C1032.9,733.5,1030.4,731,1029.8,727.7z"/>
</svg>
