<?xml version="1.0" encoding="utf-8"?>
<!-- Generator: Adobe Illustrator 18.1.0, SVG Export Plug-In . SVG Version: 6.00 Build 0)  -->
<!DOCTYPE svg PUBLIC "-//W3C//DTD SVG 1.1//EN" "http://www.w3.org/Graphics/SVG/1.1/DTD/svg11.dtd">
<svg version="1.1" id="Layer_1" xmlns="http://www.w3.org/2000/svg" xmlns:xlink="http://www.w3.org/1999/xlink" x="0px" y="0px"
	 viewBox="974 718 100 100" enable-background="new 974 718 100 100" xml:space="preserve">
<path fill="#FFFFFF" d="M1033.4,744.3v-3c1.6-1,2.7-2.7,2.7-4.7c0-3-2.5-5.5-5.5-5.5c-1.1,0-2.1,0.3-2.9,0.9c-0.8-3.6-4.1-6.3-8-6.3
	c-4.5,0-8.2,3.7-8.2,8.2c0,2.4,1.1,4.6,2.7,6.1v3.3c-3.3-1.9-5.5-5.4-5.5-9.4c0-6,4.9-10.9,10.9-10.9c4.1,0,7.6,2.3,9.5,5.6
	c0.5-0.1,0.9-0.1,1.4-0.1c4.5,0,8.2,3.7,8.2,8.2C1038.9,740.3,1036.7,743.3,1033.4,744.3z M1018.4,736.6c0.8,0,1.4,0.6,1.4,1.4v10.9
	c0,0.8-0.6,1.4-1.4,1.4c-0.8,0-1.4-0.6-1.4-1.4V738C1017.1,737.3,1017.7,736.6,1018.4,736.6z M1023.9,739.4c0.8,0,1.4,0.6,1.4,1.4
	v10.9c0,0.8-0.6,1.4-1.4,1.4s-1.4-0.6-1.4-1.4v-10.9C1022.5,740,1023.2,739.4,1023.9,739.4z M1029.4,736.6c0.8,0,1.4,0.6,1.4,1.4
	v10.9c0,0.8-0.6,1.4-1.4,1.4s-1.4-0.6-1.4-1.4V738C1028,737.3,1028.6,736.6,1029.4,736.6z"/>
</svg>
