<?xml version="1.0" encoding="utf-8"?>
<!-- Generator: Adobe Illustrator 18.1.0, SVG Export Plug-In . SVG Version: 6.00 Build 0)  -->
<!DOCTYPE svg PUBLIC "-//W3C//DTD SVG 1.1//EN" "http://www.w3.org/Graphics/SVG/1.1/DTD/svg11.dtd">
<svg version="1.1" id="Layer_1" xmlns="http://www.w3.org/2000/svg" xmlns:xlink="http://www.w3.org/1999/xlink" x="0px" y="0px"
	 viewBox="974 718 100 100" enable-background="new 974 718 100 100" xml:space="preserve">
<g>
	<g>
		<path fill="#FFFFFF" d="M1030.8,729c-0.5,0-1,0.1-1.4,0.1c-1.8-3.3-5.4-5.6-9.5-5.6c-6,0-10.9,4.9-10.9,10.9
			c0,4.1,2.2,7.6,5.6,9.5c0.2-0.9,0.6-1.7,1.3-2.3l0.1-0.1c-2.4-1.4-4.1-4.1-4.1-7.1c0-4.5,3.7-8.2,8.2-8.2c3.9,0,7.1,2.7,8,6.3
			c0.8-0.5,1.8-0.9,2.9-0.9c3,0,5.4,2.4,5.4,5.4c0,2.3-1.5,4.4-3.5,5.1c0.5,0.7,0.8,1.7,0.8,2.6c3.2-1.1,5.4-4.1,5.4-7.7
			C1038.9,732.7,1035.3,729,1030.8,729z M1019.2,742.1l-1.4,1.4c-0.8,0.8-0.8,2.1,0,2.9c0.8,0.8,2.1,0.8,2.9,0
			c0.8-0.8,0.8-2.1,0-2.9L1019.2,742.1z M1024,747.5l-1.4,1.4c-0.8,0.8-0.8,2.1,0,2.9c0.8,0.8,2.1,0.8,2.9,0c0.8-0.8,0.8-2.1,0-2.9
			L1024,747.5z M1028.7,742.1l-1.4,1.4c-0.8,0.8-0.8,2.1,0,2.9c0.8,0.8,2.1,0.8,2.9,0c0.8-0.8,0.8-2.1,0-2.9L1028.7,742.1z"/>
	</g>
</g>
</svg>
