<?xml version="1.0" encoding="utf-8"?>
<!-- Generator: Adobe Illustrator 18.1.0, SVG Export Plug-In . SVG Version: 6.00 Build 0)  -->
<!DOCTYPE svg PUBLIC "-//W3C//DTD SVG 1.1//EN" "http://www.w3.org/Graphics/SVG/1.1/DTD/svg11.dtd">
<svg version="1.1" id="Layer_1" xmlns="http://www.w3.org/2000/svg" xmlns:xlink="http://www.w3.org/1999/xlink" x="0px" y="0px"
	 viewBox="-973 719 100 100" enable-background="new -973 719 100 100" xml:space="preserve">
<path fill="#FFFFFF" d="M-912.5,747.5v-3.3c1.8-1,3-3,3-5.2c0-3.3-2.7-6-6-6c-1.2,0-2.3,0.4-3.3,1c-0.9-4-4.5-7-8.7-7c-5,0-9,4-9,9
	c0,2.7,1.2,5,3,6.7v3.7c-3.6-2.1-6-5.9-6-10.4c0-6.6,5.4-12,12-12c4.5,0,8.4,2.5,10.5,6.2c0.5-0.1,1-0.2,1.5-0.2c5,0,9,4,9,9
	C-906.5,742.9-909,746.2-912.5,747.5z M-929,742c0.8,0,1.5,0.7,1.5,1.5c0,0.8-0.7,1.5-1.5,1.5c-0.8,0-1.5-0.7-1.5-1.5
	C-930.5,742.7-929.8,742-929,742z M-929,748c0.8,0,1.5,0.7,1.5,1.5c0,0.8-0.7,1.5-1.5,1.5c-0.8,0-1.5-0.7-1.5-1.5
	C-930.5,748.7-929.8,748-929,748z M-923,745c0.8,0,1.5,0.7,1.5,1.5c0,0.8-0.7,1.5-1.5,1.5c-0.8,0-1.5-0.7-1.5-1.5
	C-924.5,745.7-923.8,745-923,745z M-923,751c0.8,0,1.5,0.7,1.5,1.5c0,0.8-0.7,1.5-1.5,1.5c-0.8,0-1.5-0.7-1.5-1.5
	C-924.5,751.7-923.8,751-923,751z M-917,742c0.8,0,1.5,0.7,1.5,1.5c0,0.8-0.7,1.5-1.5,1.5c-0.8,0-1.5-0.7-1.5-1.5
	C-918.5,742.7-917.8,742-917,742z M-917,748c0.8,0,1.5,0.7,1.5,1.5c0,0.8-0.7,1.5-1.5,1.5c-0.8,0-1.5-0.7-1.5-1.5
	C-918.5,748.7-917.8,748-917,748z"/>
</svg>
