<?xml version="1.0" encoding="utf-8"?>
<!-- Generator: Adobe Illustrator 18.1.0, SVG Export Plug-In . SVG Version: 6.00 Build 0)  -->
<!DOCTYPE svg PUBLIC "-//W3C//DTD SVG 1.1//EN" "http://www.w3.org/Graphics/SVG/1.1/DTD/svg11.dtd">
<svg version="1.1" id="Layer_1" xmlns="http://www.w3.org/2000/svg" xmlns:xlink="http://www.w3.org/1999/xlink" x="0px" y="0px"
	 viewBox="974 718 100 100" enable-background="new 974 718 100 100" xml:space="preserve">
<path fill="#FFFFFF" d="M1031,744.8c-0.2,0-0.4,0-0.7,0l2.4-3c2.2-0.7,3.7-2.8,3.7-5.2c0-3-2.4-5.5-5.5-5.5c-1.1,0-2.1,0.3-3,0.9
	c-0.8-3.6-4.1-6.3-8-6.3c-4.5,0-8.2,3.7-8.2,8.2c0,3.7,2.5,6.8,5.9,7.8l-0.9,2.6c-4.4-1.4-7.7-5.5-7.7-10.4c0-6,4.9-10.9,10.9-10.9
	c4.1,0,7.7,2.3,9.5,5.6c0.5-0.1,0.9-0.1,1.4-0.1c4.5,0,8.2,3.7,8.2,8.2C1039.2,741.2,1035.5,744.8,1031,744.8z M1022.8,735.3h6.8
	l-4.1,6.8h4.8l-8.9,10.9l2.5-8.2h-4.5L1022.8,735.3z"/>
</svg>
