<?xml version="1.0" encoding="utf-8"?>
<!-- Generator: Adobe Illustrator 18.1.0, SVG Export Plug-In . SVG Version: 6.00 Build 0)  -->
<!DOCTYPE svg PUBLIC "-//W3C//DTD SVG 1.1//EN" "http://www.w3.org/Graphics/SVG/1.1/DTD/svg11.dtd">
<svg version="1.1" id="Layer_1" xmlns="http://www.w3.org/2000/svg" xmlns:xlink="http://www.w3.org/1999/xlink" x="0px" y="0px"
	 viewBox="-973 719 100 100" enable-background="new -973 719 100 100" xml:space="preserve">
<path fill="#FFFFFF" d="M-909.6,729h-27.1c-0.8,0-1.4-0.6-1.4-1.4c0-0.8,0.6-1.4,1.4-1.4h27.1c0.8,0,1.4,0.6,1.4,1.4
	C-908.1,728.4-908.8,729-909.6,729z M-935.3,731.9h21.4c0.8,0,1.4,0.6,1.4,1.4c0,0.8-0.6,1.4-1.4,1.4h-21.4c-0.8,0-1.4-0.6-1.4-1.4
	C-936.7,732.5-936.1,731.9-935.3,731.9z M-926.7,737.6h15.7c0.8,0,1.4,0.6,1.4,1.4c0,0.8-0.6,1.4-1.4,1.4h-15.7
	c-0.8,0-1.4-0.6-1.4-1.4C-928.1,738.2-927.5,737.6-926.7,737.6z M-925.3,749h4.3c0.8,0,1.4,0.6,1.4,1.4c0,0.8-0.6,1.4-1.4,1.4h-4.3
	c-0.8,0-1.4-0.6-1.4-1.4C-926.7,749.6-926.1,749-925.3,749z M-924.6,744.7c0-0.8,0.6-1.4,1.4-1.4h10c0.8,0,1.4,0.6,1.4,1.4
	c0,0.8-0.6,1.4-1.4,1.4h-10C-923.9,746.1-924.6,745.5-924.6,744.7z"/>
</svg>
