<?xml version="1.0" encoding="utf-8"?>
<!-- Generator: Adobe Illustrator 18.1.0, SVG Export Plug-In . SVG Version: 6.00 Build 0)  -->
<!DOCTYPE svg PUBLIC "-//W3C//DTD SVG 1.1//EN" "http://www.w3.org/Graphics/SVG/1.1/DTD/svg11.dtd">
<svg version="1.1" id="Layer_1" xmlns="http://www.w3.org/2000/svg" xmlns:xlink="http://www.w3.org/1999/xlink" x="0px" y="0px"
	 viewBox="974 718 100 100" enable-background="new 974 718 100 100" xml:space="preserve">
<path fill="#FFFFFF" d="M1034.9,739.4L1034.9,739.4h-2c-0.8,0-1.4-0.6-1.4-1.4c0-0.8,0.6-1.4,1.4-1.4h2c0.8,0,1.4-0.6,1.4-1.4
	c0-0.8-0.6-1.4-1.4-1.4s-1.4-0.6-1.4-1.4c0-0.8,0.6-1.4,1.4-1.4c0.1,0,0.2,0,0.3,0c2.1,0.1,3.8,1.9,3.8,4.1
	C1039,737.5,1037.1,739.4,1034.9,739.4z M1028,736.6h-1.4h-4.8h-8.9c-0.8,0-1.4,0.6-1.4,1.4c0,0.8,0.6,1.4,1.4,1.4h1.4h2.7h2h2.7h2
	h2.7h1.4c2.3,0,4.1,1.8,4.1,4.1c0,2.2-1.7,3.9-3.8,4.1c-0.1,0-0.2,0-0.3,0c-0.8,0-1.4-0.6-1.4-1.4c0-0.8,0.6-1.4,1.4-1.4
	c0.8,0,1.4-0.6,1.4-1.4c0-0.8-0.6-1.4-1.4-1.4h-1.4h-2.7h-2h-2.7h-2h-2.7h-1.4c-2.3,0-4.1-1.8-4.1-4.1c0-2.2,1.7-3.9,3.8-4.1
	c0.1,0,0.2,0,0.3,0l0,0h8.9h4.8h1.4c0.8,0,1.4-0.6,1.4-1.4c0-0.8-0.6-1.4-1.4-1.4c-0.8,0-1.4-0.6-1.4-1.4c0-0.8,0.6-1.4,1.4-1.4
	c0.1,0,0.2,0,0.3,0c2.1,0.1,3.8,1.9,3.8,4.1C1032.1,734.8,1030.3,736.6,1028,736.6z"/>
</svg>
